<svg xmlns="http://www.w3.org/2000/svg" xmlns:xlink="http://www.w3.org/1999/xlink" version="1.1" x="0px" y="0px" viewBox="0 0 20 25" style="enable-background:new 0 0 20 20;" xml:space="preserve"><g><polygon points="5.2,11 6.8,11 6,8.8  "/><path d="M19,2H1C0.4,2,0,2.5,0,3v14c0,0.6,0.4,1,1,1h13v-2h4v2h1c0.5,0,1-0.4,1-1V3C20,2.5,19.5,2,19,2z M16,5L16,5   c0,1.1-0.9,2-2,2C14,5.9,14.9,5,16,5z M9.3,14.9c-0.1,0-1,0.2-1.3-0.6L7.6,13H4.4l-0.5,1.4c-0.2,0.5-0.8,0.8-1.3,0.6   c-0.5-0.2-0.8-0.8-0.6-1.3l3-8C5.2,5.3,5.6,5,6,5s0.8,0.3,0.9,0.6l3,8C10.1,14.2,9.9,14.7,9.3,14.9z M16.7,10.4   c-0.4,1-1.3,1.6-2,1.6c-0.2,0-0.5-0.1-0.7-0.2C13.8,12,13.6,12,13.3,12c-0.7,0-1.6-0.6-2-1.6C10.6,8.9,11.1,7,12.6,7   c0.5,0,1,0.2,1.4,0.6C14.4,7.2,14.8,7,15.4,7C16.9,7,17.3,8.9,16.7,10.4z"/></g><text x="0" y="35" fill="#000000" font-size="5px" font-weight="bold" font-family="'Helvetica Neue', Helvetica, Arial-Unicode, Arial, Sans-serif">Created by ProSymbols</text><text x="0" y="40" fill="#000000" font-size="5px" font-weight="bold" font-family="'Helvetica Neue', Helvetica, Arial-Unicode, Arial, Sans-serif">from the Noun Project</text></svg>