<svg xmlns="http://www.w3.org/2000/svg" xmlns:xlink="http://www.w3.org/1999/xlink" version="1.1" x="0px" y="0px" viewBox="0 0 100 125" enable-background="new 0 0 100 100" xml:space="preserve"><path d="M94.517,29.517l-2.105-1.206c0.182-0.404,0.059-0.888-0.306-1.142l1.125-1.961c0.28-0.485,0.115-1.103-0.369-1.383  l-0.29-0.161c-0.484-0.28-1.103-0.115-1.382,0.37l-1.126,1.961l-1.045-0.611l1.126-1.961c0.28-0.485,0.115-1.103-0.37-1.382  l-0.289-0.161c-0.485-0.28-1.086-0.099-1.366,0.386l-1.126,1.945l-1.125-0.643l1.125-1.961c0.28-0.485,0.115-1.103-0.369-1.382  l-0.29-0.161c-0.484-0.28-1.102-0.115-1.382,0.37l-1.126,1.961l-1.125-0.659l1.125-1.945c0.281-0.485,0.132-1.103-0.354-1.383  l-0.273-0.161c-0.484-0.28-1.102-0.115-1.382,0.37l-1.125,1.961l-1.126-0.659l1.126-1.945c0.28-0.484,0.099-1.103-0.387-1.382  l-0.257-0.161c-0.484-0.28-1.103-0.115-1.383,0.37l-1.125,1.961l-1.125-0.659l1.125-1.945c0.28-0.485,0.115-1.103-0.369-1.382  l-0.29-0.161c-0.484-0.28-1.102-0.115-1.382,0.37l-1.126,1.945l-1.109-0.643l1.126-1.945c0.279-0.485,0.115-1.103-0.37-1.382  l-0.273-0.161c-0.182-0.105-0.384-0.158-0.578-0.145c-0.325,0.023-0.629,0.211-0.804,0.515l-1.126,1.945  c-0.409-0.218-0.922-0.082-1.189,0.29l-1.736-1.013c-0.484-0.28-1.103-0.115-1.382,0.37l-0.161,0.29  c-0.279,0.484-0.115,1.103,0.37,1.382l1.72,0.997l-0.61,1.045l-1.721-0.997c-0.484-0.28-1.102-0.115-1.383,0.37l-0.16,0.29  c-0.28,0.484-0.115,1.086,0.369,1.366l1.736,0.997l-0.659,1.125l-1.72-0.997c-0.484-0.28-1.103-0.115-1.383,0.37l-0.16,0.273  c-0.28,0.484-0.115,1.119,0.369,1.398l1.721,0.997l-0.644,1.125l-1.736-0.997c-0.484-0.28-1.086-0.131-1.366,0.354l-0.16,0.273  c-0.28,0.485-0.115,1.103,0.369,1.383l1.721,0.997L62.8,27.925l-1.736-0.997c-0.484-0.28-1.103-0.115-1.382,0.37l-0.145,0.273  c-0.28,0.485-0.115,1.103,0.369,1.382l1.72,0.997l-0.643,1.125l-1.736-0.997c-0.484-0.28-1.103-0.115-1.382,0.37l-0.161,0.29  c-0.28,0.485-0.115,1.103,0.37,1.382l1.735,0.997l-0.643,1.109l-1.736-0.997c-0.484-0.28-1.103-0.115-1.383,0.37l-0.16,0.273  c-0.28,0.485-0.115,1.103,0.369,1.382l1.736,0.997c-0.239,0.431-0.096,0.995,0.321,1.254l-0.804,1.383  c-0.279,0.484-0.114,1.103,0.37,1.382l0.273,0.161c0.484,0.28,1.103,0.115,1.383-0.37l0.804-1.382l1.108,0.643l-0.804,1.382  c-0.279,0.485-0.114,1.103,0.37,1.382l0.289,0.161c0.485,0.28,1.103,0.115,1.383-0.37l0.804-1.382l1.125,0.643l-0.804,1.398  c-0.279,0.485-0.115,1.103,0.37,1.382l0.257,0.145c0.485,0.28,1.119,0.115,1.398-0.37l0.804-1.382l1.126,0.643l-0.804,1.398  c-0.28,0.485-0.115,1.103,0.369,1.383l0.273,0.161c0.484,0.28,1.087,0.099,1.366-0.386l0.804-1.383l1.126,0.643l-0.804,1.399  c-0.28,0.484-0.115,1.103,0.369,1.382l0.289,0.161c0.485,0.28,1.104,0.115,1.383-0.37l0.804-1.398l1.125,0.659l-0.804,1.383  c-0.279,0.485-0.131,1.103,0.354,1.382l0.289,0.161c0.484,0.28,1.103,0.115,1.383-0.37l0.804-1.398l1.045,0.611l-0.804,1.398  c-0.28,0.485-0.115,1.103,0.369,1.382l0.289,0.161c0.485,0.28,1.104,0.115,1.383-0.37l0.804-1.398  c0.426,0.201,0.944,0.04,1.189-0.37l2.09,1.206c0.485,0.28,1.103,0.115,1.383-0.37l0.161-0.273c0.28-0.485,0.114-1.103-0.37-1.382  l-2.09-1.206l0.643-1.109l2.09,1.206c0.485,0.28,1.104,0.115,1.383-0.37l0.161-0.29c0.279-0.484,0.114-1.103-0.37-1.382l-2.09-1.206  l0.659-1.125l2.09,1.206c0.484,0.28,1.103,0.115,1.383-0.37l0.145-0.273c0.279-0.485,0.115-1.103-0.37-1.383l-2.09-1.206  l0.659-1.125l2.09,1.206c0.484,0.28,1.103,0.115,1.383-0.37l0.16-0.273c0.28-0.485,0.1-1.086-0.386-1.367l-2.09-1.206l0.659-1.125  l2.09,1.206c0.485,0.28,1.103,0.099,1.383-0.386l0.16-0.273c0.281-0.485,0.115-1.103-0.369-1.382l-2.09-1.206l0.643-1.125  l2.09,1.206c0.485,0.28,1.103,0.131,1.383-0.354l0.161-0.29c0.28-0.485,0.114-1.103-0.37-1.382l-2.09-1.206l0.611-1.045l2.09,1.206  c0.484,0.28,1.103,0.115,1.382-0.37l0.161-0.29C95.166,30.415,95.002,29.797,94.517,29.517z"/><path d="M68.845,56.926c-0.613-0.008-1.426-0.005-2.396,0c-2.908,0.016-7.251,0.083-12.057,0.193l-15.544,0.354l-1.029,2.025  c-0.568,1.114-0.951,2.104-0.852,2.202c0.099,0.1,4.336,0.388,9.42,0.644c17.261,0.867,17.205,0.876,19.998-1.109  c2.411-1.714,4.242-3.764,3.777-4.229C70.129,56.974,69.662,56.937,68.845,56.926z"/><path d="M33.093,65.606c2.972-4.758,21.238-36.777,21.074-36.941c-0.018-0.019-0.05-0.032-0.112-0.032  c-0.931-0.007-6.485,1.888-7.699,2.668C44.708,32.36,28.452,63.25,28.334,65.543c-0.061,1.195-1.453,4.53-3.761,9.034  c-4.458,8.698-4.713,10.913-1.399,12.33c1.927,0.823,3.529,0.522,6.125-1.142c2.535-1.624,4.781-5.201,5.546-8.842  c0.632-3.006,0.604-3.215-1.64-8.696C32.682,66.946,32.647,66.321,33.093,65.606z M31.919,77.695  c-1.098,3.235-2.626,5.231-4.935,6.414c-2.258,1.156-2.101,1.13-2.877,0.354c-0.973-0.972-0.76-1.851,1.511-6.285  c2.793-5.452,3.897-6.977,5.08-6.977C32.725,71.201,33.226,73.849,31.919,77.695z M33.511,58.855c0.425,0,0.772,0.332,0.772,0.739  c0,0.859-0.726,1.429-1.206,0.948C32.462,59.928,32.736,58.855,33.511,58.855z"/><path d="M29.717,59.321c0.515-0.966,0.937-1.968,0.948-2.219c0.012-0.251-1.223-0.308-2.749-0.129  c-4.506,0.53-5.773,0.04-8.118-3.134c-2.285-3.093-4.368-4.245-7.636-4.245c-3.821,0-7.189,2.743-7.186,5.852  c0.003,2.355,1.698,4.828,3.697,5.369c0.931,0.252,5.838,0.407,10.899,0.354l9.195-0.097L29.717,59.321z M17.902,57.167  c-0.197,0.319-0.994,0.841-1.785,1.142c-2.643,1.005-5.914,0.678-7.314-0.724c-1.63-1.63-1.597-3.024,0.096-4.356  c0.821-0.646,2.098-1.012,3.376-1.061c1.278-0.05,2.546,0.222,3.376,0.804C17.078,53.971,18.381,56.393,17.902,57.167z"/><text x="0" y="115" fill="#000000" font-size="5px" font-weight="bold" font-family="'Helvetica Neue', Helvetica, Arial-Unicode, Arial, Sans-serif">Created by Ben Avery</text><text x="0" y="120" fill="#000000" font-size="5px" font-weight="bold" font-family="'Helvetica Neue', Helvetica, Arial-Unicode, Arial, Sans-serif">from the Noun Project</text></svg>