<svg xmlns="http://www.w3.org/2000/svg" xmlns:xlink="http://www.w3.org/1999/xlink" xml:space="preserve" version="1.1" style="shape-rendering:geometricPrecision;text-rendering:geometricPrecision;image-rendering:optimizeQuality;" viewBox="0 0 307 387.5" x="0px" y="0px" fill-rule="evenodd" clip-rule="evenodd"><defs><style type="text/css">
   
    .fil0 {fill:black}
   
  </style></defs><g><circle class="fil0" transform="matrix(1.35561 -0.415694 0.415694 1.35561 36.4839 102.305)" r="15"/><path class="fil0" d="M113 260l-43 46c-10,11 -27,-4 -16,-15l37 -40 -13 -35 27 0 10 28c2,7 3,12 -2,16z"/><path class="fil0" d="M69 130l12 -13c9,-10 25,4 15,15l-16 17 -11 -19z"/><path class="fil0" d="M74 211c-6,-4 -25,-41 -30,-49l-14 28 -11 40c-3,14 -22,7 -19,-7l11 -43 20 -40c2,-9 27,-23 35,-8 12,22 19,34 31,56l47 2c8,0 10,6 11,11l16 59c4,14 -16,21 -20,7l-17 -55 -60 -1z"/><circle class="fil0" transform="matrix(-1.41543 -0.0839324 -0.0839324 1.41543 241.573 37.1901)" r="15"/><path class="fil0" d="M204 209l53 34c13,8 25,-10 13,-18l-46 -30 4 -38 -26 7 -3 29c-1,8 0,13 5,16z"/><path class="fil0" d="M231 152c5,-6 14,-46 17,-55l21 23 19 37c7,13 24,2 17,-11l-20 -40 -29 -34c-4,-8 -32,-15 -36,1l-17 61 -83 -61c-12,-8 -26,8 -14,17 31,23 62,47 92,70l33 -8z"/><path class="fil0" d="M202 122l-7 0c-12,0 -12,-19 1,-18l11 0 -5 18z"/><path class="fil0" d="M70 0c7,20 3,18 21,7 -6,20 -8,16 13,18 -16,12 -16,8 0,22 -21,0 -18,-3 -13,18 -17,-12 -13,-13 -21,7 -7,-20 -3,-19 -21,-7 6,-20 8,-17 -13,-18 17,-13 17,-8 0,-22 21,-1 18,3 13,-18 17,12 13,13 21,-7z"/></g><text x="0" y="325" fill="#000000" font-size="5px" font-weight="bold" font-family="'Helvetica Neue', Helvetica, Arial-Unicode, Arial, Sans-serif">Created by kareemovic</text><text x="0" y="330" fill="#000000" font-size="5px" font-weight="bold" font-family="'Helvetica Neue', Helvetica, Arial-Unicode, Arial, Sans-serif">from the Noun Project</text></svg>