<svg xmlns="http://www.w3.org/2000/svg" xmlns:xlink="http://www.w3.org/1999/xlink" version="1.1" x="0px" y="0px" viewBox="0 0 209.253 267.12125000000003" style="enable-background:new 0 0 209.253 213.697;" xml:space="preserve"><g><path d="M97.23,160.437c-9.876,9.983-24.661,16.864-39.328,21.572l-7.779,10.026c-4.232,5.454-3.242,13.307,2.213,17.536   c2.279,1.77,4.976,2.627,7.654,2.627c3.73,0,7.42-1.663,9.884-4.838l38.655-49.82l-6.434-1.883   C100.627,157.052,99.016,158.632,97.23,160.437z"/><path d="M109.262,70.382c3.687-0.502,8.001-1.432,12.431-3.135c4.353-1.677,8.27-3.829,11.801-6.478   c-2.429-5.419-5.469-11.048-7.2-14.154c-1.396,0.248-2.829,0.385-4.295,0.385c-1.635,0-3.231-0.164-4.777-0.471   c-1.941,1.153-3.841,3.222-5.039,5.401c-0.357,0.537-0.663,1.119-0.888,1.755c-0.003,0-0.021,0.058-0.101,0.269   c-0.445,1.206-2.388,6.231-5.648,12.538C106.837,67.584,108.09,68.867,109.262,70.382z"/><path d="M140.281,54.535c1.486-1.658,2.888-3.437,4.203-5.355c0.168-0.246,0.352-0.477,0.543-0.699   c1.732-3.104,5.032-5.118,8.718-5.118c0.832,0,1.665,0.104,2.477,0.31c15.724,4.018,21.115,5.109,21.115,5.109   s0.06,0.678,0.155,1.777c-4.542-0.799-11.685-2.373-21.764-4.947c-4.283-1.092-8.639,1.495-9.727,5.777   c-1.092,4.283,1.495,8.636,5.777,9.728c13.248,3.364,21.546,5.13,26.958,5.814c0.071,0.009,0.147,0.02,0.217,0.028   c0.002,0,0.005,0.001,0.008,0.001c1.415,0.167,2.645,0.266,3.86,0.266c1.228-0.03,2.378-0.014,4.29-0.65   c0.945-0.351,2.216-0.909,3.542-2.297c1.343-1.337,2.346-3.773,2.28-5.771c-0.011-1.77-0.51-3.054-0.954-3.946   c-0.914-1.715-1.723-2.42-2.429-3.102c-1.328-1.186-2.556-1.97-3.984-2.843c-4.872-2.924-12.049-6.22-18.302-8.988   c-6.213-2.738-11.327-4.823-11.37-4.84c-1.126-0.459-2.295-0.634-3.435-0.574c-0.11,0.004-0.216,0.012-0.323,0.021   c-0.192,0.017-0.382,0.046-0.571,0.078c-0.021,0.004-0.045,0.004-0.066,0.009c-0.006,0.002-0.013,0.003-0.019,0.005   c-0.355,0.062-0.704,0.144-1.045,0.254c-3.277,0.794-6.251,1.806-9.083,2.917c-0.378,0.486-0.77,0.962-1.183,1.418   C140.699,42.503,140.652,48.609,140.281,54.535z"/><path d="M170.074,132.143c-2.882-8.126-4.535-14.836-5.458-19.413c-0.461-2.289-0.739-4.044-0.897-5.175   c-0.08-0.564-0.127-0.975-0.156-1.217c-0.012-0.112-0.02-0.187-0.025-0.227c-0.001-0.016-0.001-0.025-0.003-0.028   c-0.007-0.076-0.023-0.15-0.032-0.226c3.81-16.188,5.502-26.448,4.786-38.762c-4.053-0.862-8.894-2.003-14.73-3.467   c-7.028,8.316-15.949,14.677-26.138,18.561c-1.778,0.68-3.536,1.261-5.262,1.766c-0.245,5.483-1.952,12.265-5.444,22.097   c-0.019,0.077-0.047,0.163-0.068,0.243l-14.359,18.507c-0.023,0.183-0.043,0.364-0.065,0.547   c4.734,1.345,13.859,4.432,23.671,9.812l14.084-18.153c3.238,16.538,13.866,54.077,47.419,91.982   c2.471,2.786,5.907,4.208,9.359,4.208c2.948,0.001,5.907-1.036,8.288-3.146c5.167-4.579,5.642-12.48,1.063-17.645   C186.507,170.297,175.845,148.407,170.074,132.143z"/><path d="M8.801,191.7l-5.184,4.298c-4.251,3.525-4.84,9.829-1.314,14.081c1.977,2.386,4.831,3.618,7.705,3.618   c2.249,0,4.51-0.754,6.376-2.3v-0.003l32.14-26.645c-20.323,5.392-38.258,6.84-39.621,6.943L8.801,191.7z"/><path d="M119.608,144.421c-4.121,1.032-7.309,1.833-15.814,9.648l13.826,4.046l-22.641,36.847   c-2.895,4.705-1.423,10.863,3.282,13.758c4.705,2.892,10.863,1.419,13.758-3.286l29.498-48c1.627-2.646,1.929-5.93,0.813-8.83   c-1.118-2.897-3.542-5.133-6.524-6.003l-6.2-1.814l-0.07,0.035C125.082,143.05,122.173,143.778,119.608,144.421z"/><ellipse transform="matrix(0.8903 -0.4555 0.4555 0.8903 -11.8805 39.49)" cx="76.006" cy="44.398" rx="19.999" ry="19.998"/><path d="M8.752,189.698c0,0,61.334-4.667,87.057-30.667c20.614-20.837,19.377-13.27,32.834-20   c-16.333-9.833-27.519-11.708-27.519-11.708l-0.711-3.555c0.713-5.215,1.935-11.106,3.989-17.695   c5.654-0.314,9.916-5.379,10.379-13.4c0.13-2.271-0.064-4.594-0.517-6.88c-5.024,0.88-9.492,1.137-12.939,1.14h-0.003   c-4.048,0-6.63-0.333-7.106-0.4c-2.119-0.307-3.989-1.419-5.27-3.13c-1.283-1.71-1.819-3.818-1.513-5.932   c0.559-3.909,3.959-6.862,7.907-6.862c0.364,0,0.735,0.026,1.098,0.077c0.056,0.006,0.129,0.015,0.227,0.023   c0.191,0.021,0.495,0.056,0.91,0.088c0.791,0.063,2.084,0.139,3.747,0.139c1.425,0,3.337-0.063,5.568-0.277   c-5.99-6.983-13.733-8.09-17.307-6.567c-4.164,1.774-9.497,5.274-10.831,17.274c-0.433,3.892-1.104,9.371-1.813,14.998l2.47-0.617   c0.799-0.199,1.615-0.302,2.433-0.302c4.592,0,8.578,3.117,9.693,7.578c1.338,5.348-1.929,10.789-7.276,12.13l-8.997,2.247   c-0.35,0.088-0.707,0.148-1.064,0.198c-0.235,1.787-0.377,2.854-0.377,2.854c-1.055,2.706-2.34,5.626-3.897,8.787   c-1.014,0.63-2.009,1.272-3.001,1.918c-12.435,8.099-23.079,17.362-31.737,26.102C18.096,174.513,8.752,189.698,8.752,189.698z"/><path d="M70.896,99.936c-4.289,1.071-1.65,15.765,1.935,15.765c0.642,0,1.294-0.078,1.945-0.24l8.999-2.25   c4.288-1.074,6.891-5.416,5.82-9.702c-1.07-4.286-5.412-6.894-9.698-5.822L70.896,99.936z"/><circle cx="121.999" cy="22.5" r="22.5"/><path d="M126.709,80.319c8.304-3.165,17.141-8.546,24.693-17.234c-0.04-0.01-0.077-0.02-0.117-0.029   c-4.472-1.141-7.457-5.146-7.52-9.554c-6.449,8.091-14.018,12.785-21.353,15.612c-8.23,3.159-16.142,3.827-21.092,3.821   c-1.681,0-3.016-0.074-3.904-0.145c-0.444-0.035-0.773-0.07-0.979-0.094c-0.103-0.012-0.177-0.021-0.215-0.023l-0.018-0.003   c-3.28-0.474-6.322,1.803-6.793,5.086c-0.474,3.277,1.804,6.319,5.087,6.793h-0.003c0.229,0.032,2.765,0.385,6.825,0.385   C107.302,84.929,116.618,84.176,126.709,80.319z"/></g><text x="0" y="228.697" fill="#000000" font-size="5px" font-weight="bold" font-family="'Helvetica Neue', Helvetica, Arial-Unicode, Arial, Sans-serif">Created by Gan Khoon Lay</text><text x="0" y="233.697" fill="#000000" font-size="5px" font-weight="bold" font-family="'Helvetica Neue', Helvetica, Arial-Unicode, Arial, Sans-serif">from the Noun Project</text></svg>