<svg xmlns="http://www.w3.org/2000/svg" xmlns:xlink="http://www.w3.org/1999/xlink" version="1.1" x="0px" y="0px" viewBox="0 0 100 125" enable-background="new 0 0 100 100" xml:space="preserve"><g display="none"><g display="inline"><polyline fill="none" stroke="#000000" stroke-width="2" stroke-linecap="round" stroke-linejoin="round" stroke-miterlimit="10" points="    92.599,5 35.593,72.656 24.591,90.063   "/><path fill="none" stroke="#000000" stroke-width="2" stroke-linecap="round" stroke-linejoin="round" stroke-miterlimit="10" d="    M92.599,5C54.817,5,24.244,57.218,24.244,95"/><line fill="none" stroke="#000000" stroke-width="2" stroke-linecap="round" stroke-linejoin="round" stroke-miterlimit="10" x1="28.327" y1="70.752" x2="35.593" y2="72.656"/><path fill="none" stroke="#000000" stroke-width="2" stroke-miterlimit="10" d="M27.072,73.619    c-2.376,3.863-6.946,6.085-11.685,5.249c-3.667-0.646-6.419-4.112-7.986-7.192c0,0,0.543-3.08,0.989-5.609    c0.453-2.565,0.989-5.609,0.989-5.609c2.523-2.313,6.335-4.667,9.964-4.027c5.523,0.975,9.41,5.772,9.417,11.19"/></g></g><g display="none"><g display="inline"><path fill="#000000" stroke="#006699" stroke-width="2" stroke-linecap="round" stroke-linejoin="round" stroke-miterlimit="10" d="    M27.072,73.619c-2.376,3.863-6.946,6.085-11.685,5.249c-3.667-0.646-6.419-4.112-7.986-7.192c0,0,0.543-3.08,0.989-5.609    c0.453-2.565,0.989-5.609,0.989-5.609c2.523-2.313,6.335-4.667,9.964-4.027c5.523,0.975,9.41,5.772,9.417,11.19L27.072,73.619z"/><polyline fill="#000000" stroke="#006699" stroke-width="2" stroke-linecap="round" stroke-linejoin="round" stroke-miterlimit="10" points="    92.599,5 35.593,72.656 24.591,90.063   "/><path fill="#000000" stroke="#006699" stroke-width="2" stroke-linecap="round" stroke-linejoin="round" stroke-miterlimit="10" d="    M92.599,5C54.817,5,24.244,57.218,24.244,95"/><line fill="#000000" stroke="#006699" stroke-width="2" stroke-linecap="round" stroke-linejoin="round" stroke-miterlimit="10" x1="28.327" y1="70.752" x2="35.593" y2="72.656"/></g></g><g display="none"><g display="inline"><path fill="#000000" stroke="#006699" stroke-width="2" stroke-miterlimit="10" d="M27.072,73.619    c-2.376,3.863-6.946,6.085-11.685,5.249c-3.667-0.646-6.419-4.112-7.986-7.192c0,0,0.543-3.08,0.989-5.609    c0.453-2.565,0.989-5.609,0.989-5.609c2.523-2.313,6.335-4.667,9.964-4.027c5.523,0.975,9.41,5.772,9.417,11.19L27.072,73.619z"/><polyline fill="#000000" stroke="#006699" stroke-width="2" stroke-linecap="round" stroke-linejoin="round" stroke-miterlimit="10" points="    92.599,5 35.593,72.656 24.591,90.063   "/><path fill="#000000" stroke="#006699" stroke-width="2" stroke-linecap="round" stroke-linejoin="round" stroke-miterlimit="10" d="    M92.599,5C54.817,5,24.244,57.218,24.244,95"/><line fill="#000000" stroke="#006699" stroke-width="2" stroke-linecap="round" stroke-linejoin="round" stroke-miterlimit="10" x1="28.327" y1="70.752" x2="35.593" y2="72.656"/></g></g><g><path d="M93.53,5.34c0.024-0.067,0.032-0.135,0.041-0.205C93.578,5.089,93.599,5.048,93.599,5c0-0.015-0.008-0.026-0.008-0.041   c-0.003-0.072-0.024-0.14-0.042-0.21c-0.015-0.057-0.023-0.115-0.048-0.168c-0.025-0.054-0.065-0.099-0.1-0.148   c-0.042-0.058-0.079-0.116-0.131-0.164c-0.01-0.01-0.015-0.023-0.026-0.033c-0.036-0.03-0.081-0.041-0.119-0.065   c-0.061-0.038-0.118-0.077-0.187-0.102c-0.066-0.023-0.132-0.031-0.201-0.04C92.69,4.021,92.647,4,92.599,4   C74.916,4,57.455,15.102,43.432,35.261c-5.997,8.62-10.884,18.399-14.356,28.337c-1.434-4.153-5.017-7.351-9.559-8.152   c-0.458-0.081-0.934-0.122-1.413-0.122c-4.006,0-7.609,2.755-9.4,4.396l-0.25,0.229L6.358,71.831l0.152,0.298   c1.04,2.045,3.969,6.89,8.703,7.724c0.716,0.127,1.445,0.19,2.167,0.19c2.898,0,5.678-1.063,7.875-2.875   C23.95,83.305,23.244,89.33,23.244,95c0,0.553,0.448,1,1,1s1-0.447,1-1c0-1.429,0.047-2.873,0.13-4.327   c0.02-0.025,0.044-0.047,0.063-0.075l10.965-17.35L93.363,5.645c0.031-0.036,0.041-0.081,0.066-0.12   C93.467,5.465,93.505,5.407,93.53,5.34z M90.388,6.071L35.236,71.528l-6.1-1.599l0.586-2.039l0.038-0.271   c0-0.015-0.002-0.028-0.002-0.042C39.467,36.723,63.645,7.607,90.388,6.071z M27.909,74.165c0.004-0.008,0.01-0.014,0.015-0.021   l0.659-2.29l5.435,1.424l-8.286,13.11C26.173,82.354,26.904,78.262,27.909,74.165z"/></g><g display="none"><g display="inline"><polyline fill="none" stroke="#000000" stroke-width="2" stroke-linecap="round" stroke-linejoin="round" stroke-miterlimit="10" points="    92.599,5 35.593,72.656 24.591,90.063   "/><path fill="none" stroke="#000000" stroke-width="2" stroke-linecap="round" stroke-linejoin="round" stroke-miterlimit="10" d="    M92.599,5C54.817,5,24.244,57.218,24.244,95"/><line fill="none" stroke="#000000" stroke-width="2" stroke-linecap="round" stroke-linejoin="round" stroke-miterlimit="10" x1="28.327" y1="70.752" x2="35.593" y2="72.656"/><path fill="none" stroke="#000000" stroke-width="2" stroke-miterlimit="10" d="M27.072,73.619    c-2.376,3.863-6.946,6.085-11.685,5.249c-3.667-0.646-6.419-4.112-7.986-7.192c0,0,0.543-3.08,0.989-5.609    c0.453-2.565,0.989-5.609,0.989-5.609c2.523-2.313,6.335-4.667,9.964-4.027c5.523,0.975,9.41,5.772,9.417,11.19"/></g></g><text x="0" y="115" fill="#000000" font-size="5px" font-weight="bold" font-family="'Helvetica Neue', Helvetica, Arial-Unicode, Arial, Sans-serif">Created by Valter Bispo</text><text x="0" y="120" fill="#000000" font-size="5px" font-weight="bold" font-family="'Helvetica Neue', Helvetica, Arial-Unicode, Arial, Sans-serif">from the Noun Project</text></svg>