<svg xmlns="http://www.w3.org/2000/svg" xmlns:xlink="http://www.w3.org/1999/xlink" version="1.1" x="0px" y="0px" viewBox="0 0 100 125" enable-background="new 0 0 100 100" xml:space="preserve"><path d="M83.3397141,5.3757324H66.6063156c-7.5800781,0-13.7470703,6.1669922-13.7470703,13.7475586v7.4389648  c0,0.2050781-0.0517578,0.4086914-0.1503906,0.5908203L47.186882,37.3366699  c-0.2519531,0.4648438-0.2407227,1.027832,0.0297852,1.4819336c0.2705078,0.4545898,0.7602539,0.7329102,1.2890625,0.7329102  h34.8339844c7.5810547,0,13.7480469-6.1674805,13.7480469-13.7480469V19.123291  C97.0877609,11.5427246,90.9207687,5.3757324,83.3397141,5.3757324z M94.0877609,25.8034668  c0,5.9262695-4.8212891,10.7480469-10.7480469,10.7480469H51.0252609l4.3203125-7.9677734  c0.3359375-0.6186523,0.5136719-1.3178711,0.5136719-2.0214844V19.123291c0-5.9262695,4.8212891-10.7475586,10.7470703-10.7475586  h16.7333984c5.9267578,0,10.7480469,4.8212891,10.7480469,10.7475586V25.8034668z M42.8143234,67.0441895v26.5800781  c0,0.5527344-0.4477539,1-1,1H10.1624699c-0.5522461,0-1-0.4472656-1-1V67.0441895H42.8143234z M42.155632,51.9016113v3.8349609  H9.2526798L3.6053405,48.154541c-1.1542969-1.550293-0.8339844-3.7431641,0.7163086-4.8979492  c1.5507813-1.1547852,3.7436528-0.8334961,4.8979497,0.7163086l5.1103516,6.8613281l6.6011353-4.6497803l1.0303955-0.725769  c1.112915-0.6569824,2.4052124-1.0409546,3.7883911-1.0409546h3.4912109h5.4306622  C38.7982101,44.4177246,42.155632,47.7751465,42.155632,51.9016113z M30.2108097,42.9851074  c4.4794903,0,8.1235332-3.644043,8.1235332-8.1235352s-3.644043-8.1240234-8.1235332-8.1240234  s-8.1235352,3.6445313-8.1235352,8.1240234S25.7313175,42.9851074,30.2108097,42.9851074z M27.1625919,39.0054932  c0-1.256958,1.3742065-2.2758789,3.069397-2.2758789s3.0693951,1.0189209,3.0693951,2.2758789  c0,0.5952759-0.3152466,1.1325073-0.8197632,1.5380859c-0.5608501,0.4508057-1.3572369,0.737854-2.2496319,0.737854  c-0.8758545,0-1.6612549-0.2752075-2.220459-0.7115479C27.4883976,40.1617432,27.1625919,39.6129761,27.1625919,39.0054932z   M6.8138366,57.7365723h38.3491211c0.5522881,0,1,0.4477158,1,1v5.3076172c0,0.5522842-0.4477119,1-1,1H6.8138366  c-0.5522847,0-1-0.4477158-1-1v-5.3076172C5.8138366,58.184288,6.2615519,57.7365723,6.8138366,57.7365723z"/><text x="0" y="115" fill="#000000" font-size="5px" font-weight="bold" font-family="'Helvetica Neue', Helvetica, Arial-Unicode, Arial, Sans-serif">Created by Llisole</text><text x="0" y="120" fill="#000000" font-size="5px" font-weight="bold" font-family="'Helvetica Neue', Helvetica, Arial-Unicode, Arial, Sans-serif">from the Noun Project</text></svg>