<svg xmlns="http://www.w3.org/2000/svg" viewBox="0 0 1958.837 53">
  <defs>
    <style>
      .cls-1 {
        fill: #ff0;
      }

      .cls-2 {
        fill: #752c15;
      }
    </style>
  </defs>
  <g id="Group_192" data-name="Group 192" transform="translate(38.553)">
    <rect id="Rectangle_672" data-name="Rectangle 672" class="cls-1" width="1919.687" height="53" transform="translate(0.013)"/>
    <g id="Group_187" data-name="Group 187" transform="translate(-38.553)">
      <path id="Path_237" data-name="Path 237" class="cls-2" d="M30.827,0,0,53H61.112Z"/>
      <path id="Path_238" data-name="Path 238" class="cls-2" d="M42.127,0,11.3,53H72.412Z" transform="translate(49.812)"/>
      <path id="Path_239" data-name="Path 239" class="cls-2" d="M53.427,0,22.6,53H84.253Z" transform="translate(99.625)"/>
      <path id="Path_240" data-name="Path 240" class="cls-2" d="M64.286,0,34,53H95.112Z" transform="translate(149.878)"/>
      <path id="Path_241" data-name="Path 241" class="cls-2" d="M75.586,0,45.3,53h61.112Z" transform="translate(199.69)"/>
      <path id="Path_242" data-name="Path 242" class="cls-2" d="M87.427,0,56.6,53h61.112Z" transform="translate(249.502)"/>
      <path id="Path_243" data-name="Path 243" class="cls-2" d="M98.727,0,67.9,53h61.112Z" transform="translate(299.314)"/>
      <path id="Path_244" data-name="Path 244" class="cls-2" d="M110.027,0,79.2,53h61.653Z" transform="translate(349.126)"/>
      <path id="Path_245" data-name="Path 245" class="cls-2" d="M120.886,0,90.6,53h61.112Z" transform="translate(399.38)"/>
      <path id="Path_246" data-name="Path 246" class="cls-2" d="M132.186,0,101.9,53h61.112Z" transform="translate(449.192)"/>
      <path id="Path_247" data-name="Path 247" class="cls-2" d="M144.027,0,113.2,53h61.112Z" transform="translate(499.004)"/>
      <path id="Path_248" data-name="Path 248" class="cls-2" d="M155.327,0,124.5,53h61.112Z" transform="translate(548.816)"/>
      <path id="Path_249" data-name="Path 249" class="cls-2" d="M166.626,0,135.8,53h61.653Z" transform="translate(598.629)"/>
      <path id="Path_250" data-name="Path 250" class="cls-2" d="M177.486,0,147.2,53h61.112Z" transform="translate(648.882)"/>
      <path id="Path_251" data-name="Path 251" class="cls-2" d="M188.786,0,158.5,53h61.112Z" transform="translate(698.694)"/>
      <path id="Path_252" data-name="Path 252" class="cls-2" d="M200.626,0,169.8,53h61.112Z" transform="translate(748.506)"/>
      <path id="Path_253" data-name="Path 253" class="cls-2" d="M211.926,0,181.1,53h61.112Z" transform="translate(798.318)"/>
      <path id="Path_254" data-name="Path 254" class="cls-2" d="M223.226,0,192.4,53h61.653Z" transform="translate(848.131)"/>
      <path id="Path_255" data-name="Path 255" class="cls-2" d="M234.086,0,203.8,53h61.112Z" transform="translate(898.384)"/>
      <path id="Path_256" data-name="Path 256" class="cls-2" d="M245.386,0,215.1,53h61.112Z" transform="translate(948.196)"/>
      <path id="Path_257" data-name="Path 257" class="cls-2" d="M257.227,0,226.4,53h61.112Z" transform="translate(998.008)"/>
      <path id="Path_258" data-name="Path 258" class="cls-2" d="M268.526,0,237.7,53h61.112Z" transform="translate(1047.82)"/>
      <path id="Path_259" data-name="Path 259" class="cls-2" d="M279.827,0,249,53h61.112Z" transform="translate(1097.632)"/>
      <path id="Path_260" data-name="Path 260" class="cls-2" d="M291.126,0,260.3,53h61.653Z" transform="translate(1147.445)"/>
      <path id="Path_261" data-name="Path 261" class="cls-2" d="M301.986,0,271.7,53h61.112Z" transform="translate(1197.698)"/>
      <path id="Path_262" data-name="Path 262" class="cls-2" d="M313.286,0,283,53h61.112Z" transform="translate(1247.51)"/>
      <path id="Path_263" data-name="Path 263" class="cls-2" d="M325.127,0,294.3,53h61.112Z" transform="translate(1297.322)"/>
      <path id="Path_264" data-name="Path 264" class="cls-2" d="M336.426,0,305.6,53h61.112Z" transform="translate(1347.135)"/>
      <path id="Path_265" data-name="Path 265" class="cls-2" d="M347.726,0,316.9,53h61.653Z" transform="translate(1396.947)"/>
      <path id="Path_266" data-name="Path 266" class="cls-2" d="M358.586,0,328.3,53h61.112Z" transform="translate(1447.2)"/>
      <path id="Path_267" data-name="Path 267" class="cls-2" d="M369.886,0,339.6,53h61.112Z" transform="translate(1497.012)"/>
      <path id="Path_268" data-name="Path 268" class="cls-2" d="M381.727,0,350.9,53h61.112Z" transform="translate(1546.824)"/>
    </g>
  </g>
</svg>
